<?xml version="1.0" standalone="no"?>
<!DOCTYPE svg PUBLIC "-//W3C//DTD SVG 20010904//EN"
 "http://www.w3.org/TR/2001/REC-SVG-20010904/DTD/svg10.dtd">
<svg version="1.0" xmlns="http://www.w3.org/2000/svg"
 width="1024.000000pt" height="1024.000000pt" viewBox="0 0 1024.000000 1024.000000"
 preserveAspectRatio="xMidYMid meet">

<g transform="translate(0.000000,1024.000000) scale(0.100000,-0.100000)"
fill="#000000" stroke="none">
<path d="M5055 7843 c-209 -7 -496 -56 -696 -119 -413 -131 -813 -363 -1086
-631 -190 -187 -241 -264 -195 -299 32 -25 53 -15 115 54 225 247 494 446 812
602 254 125 463 192 750 242 175 30 558 32 735 5 600 -94 1103 -349 1527 -774
79 -79 150 -143 160 -143 29 1 53 25 53 53 0 33 -52 96 -191 234 -401 395
-918 652 -1504 749 -103 16 -355 31 -480 27z"/>
<path d="M5064 7635 c92 -120 28 -265 -118 -265 -52 0 -56 -7 -23 -37 117
-108 300 -62 343 84 14 48 14 58 0 106 -25 88 -119 157 -213 157 -22 0 -22 -1
11 -45z"/>
<path d="M5683 7426 c-13 -13 -23 -28 -23 -32 1 -10 50 -68 53 -63 1 2 13 16
26 31 l23 27 -22 30 c-26 37 -29 37 -57 7z"/>
<path d="M4570 7365 l-24 -25 29 -30 29 -30 23 24 c29 31 29 37 0 64 -29 27
-29 27 -57 -3z"/>
<path d="M4248 7253 l-27 -28 29 -35 28 -35 20 25 c11 14 21 27 23 30 2 3 -7
20 -21 38 l-26 32 -26 -27z"/>
<path d="M5937 7235 c-17 -24 -17 -26 5 -55 l22 -30 29 31 28 31 -22 24 c-28
30 -39 30 -62 -1z"/>
<path d="M5035 7043 c-428 -20 -875 -189 -1210 -456 -110 -88 -267 -251 -355
-369 -232 -308 -343 -605 -366 -970 l-7 -118 -58 0 c-33 0 -59 4 -59 9 0 4
-18 20 -39 34 l-39 26 24 59 c40 100 54 172 64 322 5 80 12 155 16 168 7 26
-12 29 -65 11 -18 -6 -34 -10 -36 -7 -7 7 -26 141 -20 146 3 3 32 9 64 13 192
22 321 169 361 411 7 42 9 89 6 104 -7 27 -7 27 -74 21 -91 -9 -222 -59 -276
-106 -17 -15 -19 -14 -35 9 -83 128 -220 205 -387 217 -78 6 -82 5 -94 -17
-15 -28 -7 -161 16 -259 18 -79 73 -186 128 -248 35 -40 134 -114 167 -125 13
-4 51 -200 47 -237 -3 -24 -6 -22 -41 32 -48 71 -113 129 -184 164 -46 22 -73
27 -157 31 -133 6 -146 -1 -146 -72 0 -115 45 -254 103 -320 l26 -30 -54 -22
c-68 -27 -153 -81 -165 -104 -8 -15 -4 -22 16 -38 l26 -19 77 39 c95 48 175
68 268 68 69 0 74 -2 83 -24 14 -37 9 -68 -10 -59 -31 15 -215 15 -260 -1 -31
-11 -48 -12 -57 -5 -7 6 -18 9 -25 6 -8 -4 -7 -6 5 -6 15 -1 20 -10 19 -31 0
-3 24 -6 54 -7 30 -1 63 -5 72 -9 9 -4 26 -9 37 -10 66 -12 255 -99 262 -121
9 -27 -209 -44 -296 -23 -57 13 -155 64 -193 100 -39 36 -89 38 -123 4 -22
-22 -5 -46 66 -95 81 -55 151 -85 251 -106 79 -17 219 -18 2678 -18 2760 0
2662 -2 2781 47 75 32 178 92 213 124 l29 28 -27 23 c-39 33 -67 29 -148 -25
-109 -73 -154 -87 -277 -87 -67 0 -106 4 -108 11 -2 6 -14 9 -27 7 -51 -10
-33 18 36 57 97 53 214 90 289 90 32 0 59 4 59 9 0 13 -62 40 -119 51 -47 9
-176 0 -198 -13 -4 -3 -6 15 -4 39 l3 44 82 0 c111 0 231 -39 296 -96 13 -11
21 -10 48 6 18 11 32 24 32 28 0 26 -69 72 -208 139 -2 0 13 24 33 52 21 28
48 82 60 119 27 76 41 209 26 232 -8 12 -34 15 -123 15 -101 0 -119 -3 -170
-27 -70 -32 -140 -96 -186 -167 -29 -46 -36 -51 -44 -37 -7 12 -3 50 11 121
12 57 21 106 21 109 0 3 19 15 43 26 77 36 141 93 194 173 72 106 94 182 101
334 4 122 4 123 -19 132 -56 20 -247 -26 -323 -79 -43 -29 -109 -97 -136 -139
l-16 -23 -50 31 c-81 50 -181 83 -254 84 l-65 2 -3 -33 c-5 -55 27 -192 63
-269 62 -132 162 -211 295 -232 35 -6 64 -12 65 -13 2 -3 -16 -140 -20 -145 0
-1 -23 4 -50 12 -26 8 -50 13 -53 11 -2 -3 1 -35 7 -73 6 -37 15 -120 21 -183
13 -138 22 -175 63 -258 l31 -64 -40 -34 c-34 -29 -46 -33 -96 -34 l-58 0 0
74 c0 217 -77 493 -202 725 -182 338 -451 617 -794 821 -272 162 -599 265
-916 290 -119 9 -144 10 -273 3z m375 -134 c183 -25 456 -110 629 -198 116
-58 283 -164 361 -229 118 -98 310 -292 310 -313 0 -4 -17 -24 -37 -44 -29
-29 -44 -36 -66 -32 -28 4 -28 3 15 -41 65 -69 66 -70 95 -120 14 -26 39 -68
55 -93 92 -148 198 -505 198 -665 l0 -44 -53 0 -53 0 -12 109 c-21 185 -102
432 -191 579 -164 269 -372 477 -638 636 -75 44 -83 56 -15 22 36 -18 53 -22
67 -14 20 9 20 9 1 -6 -20 -16 -12 -21 24 -16 8 1 12 -1 8 -5 -4 -4 3 -16 15
-25 12 -10 24 -15 27 -10 12 19 46 18 70 -1 14 -11 18 -18 10 -14 -8 4 -4 -2
10 -13 13 -11 28 -18 33 -15 12 7 38 -18 30 -30 -3 -6 -1 -7 5 -3 7 4 12 3 12
-1 0 -5 26 -28 58 -53 62 -49 120 -99 164 -144 15 -16 28 -26 28 -21 0 18
-160 181 -229 234 -186 142 -428 271 -629 337 -296 97 -635 117 -927 55 -202
-42 -459 -147 -615 -251 -56 -37 -144 -104 -160 -120 -3 -3 -25 -21 -50 -40
-81 -63 -280 -288 -280 -317 0 -5 -15 -32 -34 -60 -42 -64 -61 -101 -93 -183
-37 -96 -102 -313 -96 -323 2 -4 0 -13 -5 -20 -13 -15 -32 -151 -32 -228 l0
-59 -102 0 -101 0 6 138 c10 210 66 410 180 637 169 339 475 631 851 815 233
114 469 183 686 200 120 10 359 4 470 -11z m-357 -220 c-26 -11 -81 -11 -87 0
-3 4 19 8 50 7 33 0 48 -3 37 -7z m130 4 c-13 -2 -33 -2 -45 0 -13 2 -3 4 22
4 25 0 35 -2 23 -4z m-236 -9 c-3 -3 -12 -4 -19 -1 -8 3 -5 6 6 6 11 1 17 -2
13 -5z m371 -1 c-10 -2 -28 -2 -40 0 -13 2 -5 4 17 4 22 1 32 -1 23 -4z m-411
-9 c-3 -3 -12 -4 -19 -1 -8 3 -5 6 6 6 11 1 17 -2 13 -5z m486 -1 c-7 -2 -19
-2 -25 0 -7 3 -2 5 12 5 14 0 19 -2 13 -5z m-565 -10 c-10 -2 -26 -2 -35 0
-10 3 -2 5 17 5 19 0 27 -2 18 -5z m-223 -61 c-3 -3 -11 0 -18 7 -9 10 -8 11
6 5 10 -3 15 -9 12 -12z m1090 8 c7 -12 -12 -12 -40 0 -18 8 -17 9 7 9 15 1
30 -3 33 -9z m-285 -61 c139 -24 232 -49 348 -95 342 -137 629 -385 800 -689
88 -155 162 -378 177 -526 3 -35 8 -74 11 -86 l4 -23 -658 0 -659 0 -17 61
c-14 51 -27 71 -74 118 -63 63 -106 81 -193 81 -100 0 -195 -65 -240 -164 -10
-23 -19 -53 -19 -68 l0 -28 -267 0 -268 0 -44 51 c-60 70 -133 104 -207 96
-72 -7 -150 -51 -188 -104 l-30 -43 -159 0 -159 0 7 78 c32 353 199 702 438
915 250 224 506 356 807 416 217 44 371 46 590 10z m501 -24 c19 -8 29 -14 23
-15 -7 0 -27 7 -45 15 -19 8 -29 14 -23 15 7 0 27 -7 45 -15z m-3220 -96 c80
-40 111 -69 149 -141 30 -56 34 -73 38 -163 4 -80 1 -103 -10 -113 -13 -10
-20 4 -51 98 -23 69 -54 137 -81 180 -42 65 -90 110 -103 97 -3 -4 16 -59 42
-123 26 -64 45 -125 42 -135 -3 -11 -1 -16 4 -13 6 3 9 -10 7 -30 -1 -20 -5
-36 -9 -36 -12 0 -29 27 -21 35 4 5 2 5 -4 2 -26 -15 -103 113 -128 214 -9 36
-16 89 -16 118 l0 53 43 -7 c23 -4 67 -20 98 -36z m5069 -6 c0 -73 -26 -166
-61 -225 -37 -60 -116 -158 -129 -158 -13 0 27 134 72 239 40 95 44 137 11
110 -9 -8 -14 -9 -11 -4 4 6 -2 11 -12 11 -14 0 -16 -3 -8 -13 13 -16 -18 -57
-35 -46 -5 3 -7 0 -5 -8 3 -8 -3 -25 -12 -39 -24 -34 -70 -134 -70 -151 0 -10
-2 -11 -8 -2 -4 6 -8 -5 -8 -26 -1 -20 -11 -55 -22 -76 l-20 -40 -7 28 c-18
71 18 289 45 272 4 -3 7 3 6 13 -1 11 6 17 20 16 11 -1 21 5 21 12 0 10 -4 11
-14 3 -9 -8 -13 -8 -13 -1 0 6 17 24 37 41 36 30 60 41 48 22 -3 -5 -1 -12 5
-16 5 -3 10 -11 10 -17 0 -6 -10 -3 -21 8 -21 19 -22 19 -15 -2 5 -15 2 -24
-10 -28 -9 -4 -14 -9 -11 -12 7 -7 67 24 67 36 0 5 -4 11 -9 14 -5 4 -8 14 -7
23 3 18 103 62 144 62 20 1 22 -4 22 -46z m-3630 -3 c-24 -15 -36 -11 -14 4
10 8 21 12 24 10 2 -3 -2 -9 -10 -14z m6 -32 c4 -6 3 -8 -4 -4 -11 6 -87 -29
-98 -45 -3 -5 -11 -9 -17 -9 -7 0 -4 7 6 14 9 7 17 18 17 25 0 6 10 11 23 11
12 0 29 5 37 10 20 13 27 12 36 -2z m-931 -95 c-9 -67 -55 -161 -100 -205 -36
-36 -114 -82 -123 -73 -2 2 4 17 14 34 94 148 124 202 124 220 0 37 -38 24
-96 -33 -30 -30 -54 -49 -54 -42 0 11 34 46 82 85 21 16 128 60 147 61 10 0
12 -11 6 -47z m4001 6 c59 -28 134 -96 134 -121 0 -7 -11 4 -25 24 -22 32 -97
88 -118 88 -18 0 -1 -39 63 -152 38 -67 68 -123 66 -125 -8 -9 -99 53 -135 92
-45 49 -66 92 -86 177 l-13 58 26 -6 c15 -3 55 -19 88 -35z m-3209 17 c0 -8
-6 -12 -13 -9 -7 2 -15 -5 -19 -16 -3 -12 -11 -19 -16 -15 -6 3 2 17 16 30 30
28 32 28 32 10z m-70 -55 c0 -11 -4 -19 -7 -18 -3 1 -31 -25 -62 -57 -32 -32
-58 -54 -58 -49 0 13 68 83 80 83 6 0 10 4 10 10 0 8 30 50 37 50 1 0 1 -9 0
-19z m-1440 -456 c65 -11 150 -73 204 -152 31 -44 36 -81 18 -115 -10 -19 -13
-16 -43 35 -49 88 -174 207 -216 207 -21 0 -9 -50 23 -96 19 -27 50 -73 70
-103 20 -29 37 -58 36 -65 0 -6 -3 -5 -6 3 -4 10 -7 11 -13 1 -20 -32 -160
108 -146 146 3 8 2 13 -3 9 -5 -3 -12 7 -15 22 -23 116 -20 128 28 119 17 -3
45 -8 63 -11z m5417 -1 c9 -24 7 -66 -3 -60 -5 4 -7 -3 -4 -13 11 -41 -92
-211 -118 -195 -5 3 -9 0 -9 -7 0 -10 -3 -10 -12 -1 -8 8 -15 9 -25 1 -23 -20
-15 12 13 53 15 21 31 35 37 31 5 -3 7 -1 4 4 -4 6 11 36 33 67 22 31 40 66
40 76 0 28 -32 25 -68 -5 -31 -26 -48 -33 -37 -15 3 6 -1 7 -10 3 -13 -4 -14
-8 -4 -14 8 -4 10 -12 5 -16 -4 -4 -13 0 -20 10 -7 9 -17 17 -21 17 -5 0 0 -9
9 -19 17 -18 17 -20 -1 -38 -10 -10 -33 -36 -51 -58 -19 -23 -30 -31 -27 -20
5 15 4 17 -3 6 -6 -8 -8 -20 -5 -28 3 -7 0 -13 -6 -13 -6 0 -11 5 -11 11 0 5
-4 7 -10 4 -5 -3 -10 2 -10 11 0 10 -3 15 -6 11 -8 -8 5 -47 16 -44 8 2 10 -3
10 -25 -1 -18 -40 34 -40 52 0 18 60 94 68 85 3 -3 -7 -18 -22 -34 -17 -17
-23 -31 -17 -35 5 -4 17 7 26 24 18 35 29 39 20 8 -6 -22 -6 -22 9 -4 9 11 16
26 16 34 0 7 4 11 9 7 17 -10 21 12 6 25 -8 7 -16 10 -16 6 -1 -3 -3 -10 -4
-16 -1 -5 -3 -16 -4 -22 -1 -8 -6 -5 -12 5 -9 16 -5 25 22 53 18 19 39 32 46
30 7 -3 12 0 10 6 -1 6 4 13 12 16 8 2 11 0 7 -6 -4 -6 2 -8 15 -5 13 4 16 8
9 13 -12 7 71 38 106 39 12 1 25 -6 28 -15z m-5023 -324 c-11 -83 -39 -174
-64 -210 -14 -21 -15 -20 -31 26 -9 26 -16 62 -16 81 0 49 34 128 77 181 35
43 38 45 41 23 2 -13 -1 -58 -7 -101z m4552 72 c-3 -12 -2 -13 4 -4 12 16 42
-16 71 -73 30 -60 33 -94 14 -153 -18 -56 -39 -70 -35 -24 2 20 0 23 -7 12
-19 -31 -69 136 -70 234 0 41 2 47 14 36 8 -6 12 -19 9 -28z m-2340 -279 c-10
-64 -13 -71 -38 -76 -16 -2 -32 2 -41 10 -13 13 -13 18 -1 37 10 15 70 56 83
56 1 0 -1 -12 -3 -27z m-1057 -112 c-4 -5 0 -12 6 -14 7 -3 3 -6 -9 -6 -12 -1
-30 -4 -40 -7 -14 -4 -13 -1 6 15 23 21 47 29 37 12z"/>
<path d="M5042 6506 c-42 -14 -105 -55 -130 -86 -95 -115 -68 -283 60 -373 51
-36 64 -40 130 -45 61 -4 83 -1 126 18 57 25 116 83 140 139 19 46 20 146 0
192 -52 121 -205 194 -326 155z m6 -133 c-3 -42 -6 -49 -31 -57 -34 -12 -63
10 -53 42 6 19 58 59 79 61 4 1 7 -20 5 -46z"/>
<path d="M5640 6302 c-77 -77 10 -199 107 -148 83 42 59 160 -34 173 -37 5
-46 2 -73 -25z"/>
<path d="M4382 6237 c-30 -32 -29 -87 1 -115 52 -49 137 -13 137 57 0 70 -91
109 -138 58z"/>
<path d="M4098 6040 c-63 -19 -129 -78 -168 -150 -8 -14 -14 -57 -15 -100 0
-64 4 -82 27 -121 96 -163 307 -187 430 -51 91 101 83 255 -18 356 -22 21 -57
47 -79 57 -42 20 -128 24 -177 9z m13 -102 c3 -35 -4 -64 -19 -76 -18 -14 -72
-13 -72 2 0 5 -3 6 -7 2 -4 -4 -10 -31 -14 -59 l-6 -52 -2 43 c-1 57 29 114
71 135 40 20 48 21 49 5z"/>
<path d="M5956 6040 c-39 -12 -98 -54 -124 -89 -105 -143 -44 -343 125 -404
217 -78 416 140 319 348 -28 60 -99 127 -154 143 -45 14 -123 14 -166 2z m22
-126 c3 -39 -9 -54 -44 -57 -26 -2 -29 1 -32 30 -3 26 2 34 25 47 37 20 47 16
51 -20z"/>
<path d="M5548 5953 c-26 -52 -74 -83 -156 -104 -53 -12 -64 -35 -31 -62 56
-45 201 11 245 95 26 50 14 118 -22 118 -6 0 -22 -21 -36 -47z"/>
<path d="M4669 5953 c-15 -39 -6 -151 15 -194 48 -101 138 -162 235 -162 73 0
116 20 116 53 0 23 -4 25 -55 27 -93 5 -120 13 -161 50 -53 48 -70 82 -80 165
-5 38 -11 73 -14 79 -13 19 -46 9 -56 -18z"/>
<path d="M6501 5568 c-5 -13 -16 -44 -25 -69 -37 -104 -122 -176 -245 -207
-84 -22 -100 -34 -81 -58 11 -13 29 -15 90 -12 131 6 243 76 297 186 31 65 39
156 13 172 -24 16 -40 12 -49 -12z"/>
<path d="M4540 5499 c-45 -18 -60 -39 -60 -86 0 -61 32 -93 94 -93 36 0 50 5
71 27 46 50 26 130 -37 152 -36 13 -35 13 -68 0z"/>
<path d="M3795 5465 c-46 -45 -27 -133 32 -156 32 -12 83 3 109 32 48 53 -2
149 -78 149 -28 0 -46 -7 -63 -25z"/>
<path d="M5777 5428 c-69 -53 -12 -172 74 -153 91 20 71 165 -24 165 -18 0
-41 -6 -50 -12z"/>
<path d="M7656 6431 c-4 -5 3 -7 14 -4 23 6 26 13 6 13 -8 0 -17 -4 -20 -9z"/>
<path d="M7718 6423 c7 -3 16 -2 19 1 4 3 -2 6 -13 5 -11 0 -14 -3 -6 -6z"/>
<path d="M7678 6413 c7 -3 16 -2 19 1 4 3 -2 6 -13 5 -11 0 -14 -3 -6 -6z"/>
<path d="M7549 6313 c-1 -8 -4 -21 -8 -38 -2 -5 -6 1 -11 15 -6 20 -7 17 -7
-17 l1 -41 23 36 c25 41 28 52 13 52 -5 0 -11 -3 -11 -7z"/>
<path d="M7500 6263 c0 -14 -2 -15 -9 -5 -7 11 -9 11 -14 -1 -4 -10 0 -14 11
-13 15 3 32 36 18 36 -3 0 -6 -8 -6 -17z"/>
<path d="M7680 5726 c0 -2 8 -10 18 -17 15 -13 16 -12 3 4 -13 16 -21 21 -21
13z"/>
<path d="M7800 5642 c0 -7 5 -12 11 -12 6 0 8 -7 4 -17 -5 -15 -4 -16 6 -5 11
10 10 15 -4 29 -11 11 -17 13 -17 5z"/>
<path d="M7766 5567 c3 -10 9 -15 12 -12 3 3 0 11 -7 18 -10 9 -11 8 -5 -6z"/>
<path d="M2864 5559 c-3 -6 -2 -15 3 -20 5 -5 9 -1 9 11 0 23 -2 24 -12 9z"/>
<path d="M6727 6823 c-4 -3 -7 -20 -7 -36 0 -20 -6 -30 -20 -34 -24 -6 -26
-26 -5 -43 8 -7 17 -27 21 -46 7 -41 18 -43 40 -8 16 23 22 25 58 20 l41 -6 0
65 0 65 -36 0 c-19 0 -44 7 -55 15 -22 16 -28 18 -37 8z m68 -73 c3 -5 1 -10
-4 -10 -6 0 -11 5 -11 10 0 6 2 10 4 10 3 0 8 -4 11 -10z"/>
<path d="M3450 6760 c-6 -22 -14 -40 -18 -40 -5 0 -17 -6 -27 -14 -17 -13 -17
-15 16 -44 45 -41 65 -40 83 2 9 22 22 36 37 38 34 5 35 27 1 39 -16 5 -34 21
-40 34 -17 37 -40 31 -52 -15z"/>
<path d="M2360 5350 c8 -5 20 -10 25 -10 6 0 3 5 -5 10 -8 5 -19 10 -25 10 -5
0 -3 -5 5 -10z"/>
<path d="M4226 4729 c-97 -13 -156 -41 -156 -73 0 -22 43 -76 61 -76 29 0 46
-236 31 -423 l-9 -118 -37 -38 c-43 -44 -44 -64 -3 -95 26 -19 42 -21 180 -21
194 0 257 20 257 81 0 17 -11 31 -39 48 -27 17 -40 34 -45 56 -10 55 -7 454 5
488 6 18 25 40 45 51 57 34 40 89 -35 111 -51 14 -181 19 -255 9z"/>
<path d="M5150 4729 c-63 -5 -198 -8 -298 -6 -210 2 -191 9 -243 -98 -39 -81
-39 -136 0 -176 49 -49 72 -39 124 53 37 64 60 78 128 78 101 0 103 7 -95
-329 -97 -165 -176 -309 -176 -319 0 -11 6 -24 13 -30 7 -6 145 -11 371 -13
l359 -4 29 35 c56 68 76 195 37 244 -16 20 -29 26 -60 26 -36 0 -40 -3 -63
-47 -41 -81 -64 -96 -153 -100 -43 -2 -85 0 -93 6 -19 13 -9 35 174 350 80
137 148 261 151 274 9 33 -25 68 -62 65 -16 0 -80 -5 -143 -9z"/>
<path d="M6010 4729 c-63 -5 -198 -8 -299 -6 l-185 2 -31 -50 c-64 -102 -73
-178 -26 -226 49 -49 72 -39 124 53 15 26 37 54 49 63 45 31 175 13 155 -22
-2 -4 -81 -139 -176 -299 -94 -160 -171 -300 -171 -311 0 -11 6 -25 13 -31 7
-6 145 -11 371 -13 l359 -4 27 33 c15 18 35 56 44 84 36 112 10 188 -65 188
-36 0 -40 -3 -63 -47 -41 -81 -64 -96 -153 -100 -43 -2 -85 0 -93 6 -19 13 -6
41 175 352 79 136 147 258 150 272 9 33 -24 68 -62 65 -16 0 -80 -5 -143 -9z"/>
<path d="M6674 4720 c-39 -25 -51 -55 -58 -141 -6 -79 -26 -133 -127 -353 -82
-178 -104 -209 -157 -231 -37 -16 -47 -34 -38 -69 9 -35 52 -46 175 -46 130 0
176 17 176 65 0 24 -6 33 -32 45 -39 18 -45 30 -30 61 17 32 71 42 186 34 72
-6 97 -11 112 -26 27 -27 24 -37 -15 -60 -44 -26 -52 -47 -28 -78 27 -37 67
-43 253 -39 152 3 170 5 196 24 21 16 28 30 28 54 0 28 -4 34 -35 44 -39 12
-26 -11 -194 336 -124 255 -172 332 -235 371 -56 36 -129 40 -177 9z m88 -338
c12 -15 34 -52 48 -81 30 -65 24 -71 -78 -71 -52 0 -74 4 -78 13 -9 25 55 167
75 167 5 0 20 -13 33 -28z"/>
<path d="M3530 4719 c-58 -5 -135 -6 -172 -3 -84 7 -136 -8 -144 -42 -8 -30 8
-51 55 -70 19 -8 39 -20 43 -27 4 -7 8 -130 8 -274 0 -245 -1 -264 -19 -279
-54 -46 -71 -64 -71 -74 0 -19 38 -49 77 -59 50 -14 247 -14 298 0 85 23 100
73 36 113 -37 24 -40 28 -46 89 -11 105 -14 102 95 103 111 2 158 13 221 53
103 65 143 179 108 305 -17 63 -93 130 -174 155 -72 23 -131 24 -315 10z m168
-133 c39 -20 57 -60 57 -127 0 -43 -5 -65 -21 -86 -24 -32 -70 -49 -108 -39
l-26 6 0 124 c0 67 3 126 7 129 11 12 63 8 91 -7z"/>
<path d="M1792 4430 c-101 -63 -43 -221 75 -203 42 7 93 63 93 103 0 92 -92
148 -168 100z"/>
<path d="M8353 4430 c-40 -24 -53 -48 -53 -99 0 -28 8 -48 26 -70 23 -28 32
-31 81 -31 49 0 58 4 84 31 53 57 35 145 -37 175 -44 19 -63 18 -101 -6z"/>
<path d="M2039 4411 c-64 -65 -20 -171 71 -171 56 0 100 42 100 95 0 69 -33
104 -98 105 -35 0 -49 -6 -73 -29z"/>
<path d="M8087 4429 c-32 -19 -49 -74 -37 -119 13 -49 42 -70 97 -70 59 0 93
31 100 92 5 42 3 50 -25 78 -25 24 -39 30 -74 30 -24 0 -51 -5 -61 -11z"/>
<path d="M2822 3552 c-12 -2 -30 -15 -39 -28 -15 -23 -15 -28 -1 -57 47 -96
337 -412 500 -544 333 -270 712 -465 1124 -578 240 -66 470 -95 749 -95 645 0
1206 190 1765 599 90 65 339 311 430 423 36 45 86 106 112 137 53 62 60 97 27
127 -21 19 -74 19 -2333 19 -1271 1 -2321 -1 -2334 -3z m2073 -352 c181 -181
236 -230 256 -230 19 0 43 18 89 68 35 37 135 140 222 230 l158 162 827 1
c456 0 836 2 847 4 45 9 47 -7 6 -51 -22 -24 -40 -48 -40 -54 0 -7 -278 -11
-837 -12 l-838 -3 -3 -22 -3 -23 800 0 c440 0 802 -4 805 -8 3 -5 -15 -28 -39
-52 l-44 -43 -481 -1 c-411 -1 -482 -3 -490 -16 -24 -38 -5 -40 463 -40 l451
0 -55 -50 -54 -49 -233 -1 c-231 0 -272 -5 -272 -34 0 -23 25 -26 216 -26 101
0 184 -4 184 -8 0 -4 -28 -28 -62 -52 -54 -38 -71 -45 -123 -48 -73 -5 -89
-16 -56 -41 l24 -18 -62 -37 c-84 -52 -306 -156 -423 -200 -167 -62 -367 -116
-533 -143 -144 -24 -187 -27 -425 -27 -346 -1 -531 26 -855 125 -193 60 -463
178 -600 263 l-40 25 28 10 c45 17 27 36 -37 39 -56 3 -63 6 -178 80 -16 9
-28 20 -28 25 0 4 86 7 190 7 168 0 191 2 197 16 14 36 -19 41 -253 43 l-225
2 -54 42 c-29 23 -54 45 -54 50 -1 4 198 7 442 7 243 0 448 4 456 9 8 5 11 16
8 25 -6 14 -43 16 -334 17 -180 0 -400 3 -488 5 l-160 4 -42 47 c-24 26 -43
48 -43 50 0 2 356 3 792 3 504 0 795 3 801 9 7 7 6 15 -3 26 -11 13 -105 15
-823 15 l-811 0 -48 47 c-26 26 -48 51 -48 54 0 13 53 14 884 12 l820 -2 231
-231z m217 179 c56 -60 62 -96 23 -149 -13 -18 -21 -38 -18 -44 14 -22 -34 20
-139 123 -60 58 -108 109 -108 113 0 5 44 8 97 8 l97 0 48 -51z"/>
<path d="M5010 3356 c0 -8 4 -17 9 -20 11 -7 33 18 24 27 -12 12 -33 7 -33 -7z"/>
</g>
</svg>
